<?xml version="1.0" standalone="no"?>
<!DOCTYPE svg PUBLIC "-//W3C//DTD SVG 20010904//EN"
 "http://www.w3.org/TR/2001/REC-SVG-20010904/DTD/svg10.dtd">
<svg version="1.0" xmlns="http://www.w3.org/2000/svg"
 width="1024.000000pt" height="1024.000000pt" viewBox="0 0 1024.000000 1024.000000"
 preserveAspectRatio="xMidYMid meet">
<metadata>
Created by potrace 1.14, written by Peter Selinger 2001-2017
</metadata>
<g transform="translate(0.000000,1024.000000) scale(0.100000,-0.100000)"
fill="#000000" stroke="none">
<path d="M0 5120 l0 -5120 5120 0 5120 0 0 5120 0 5120 -5120 0 -5120 0 0
-5120z m4420 3524 c161 -64 269 -123 380 -204 253 -186 273 -194 395 -165 250
59 424 68 645 34 85 -13 187 -24 225 -24 68 0 73 2 161 57 50 31 138 81 195
111 187 100 467 203 490 180 14 -14 -5 -194 -36 -348 -32 -160 -65 -258 -129
-390 -30 -60 -56 -117 -59 -126 -3 -9 6 -52 19 -95 33 -105 64 -288 64 -384 0
-42 -7 -117 -15 -165 -9 -48 -14 -90 -11 -92 2 -3 116 -6 253 -8 265 -4 452
-16 653 -41 132 -17 154 -25 130 -48 -13 -11 -36 -11 -150 4 -259 35 -854 55
-899 30 -22 -11 -71 -101 -71 -130 0 -23 -3 -22 170 -45 151 -20 343 -57 505
-96 179 -43 380 -105 379 -118 -4 -40 14 -42 -209 23 -268 78 -822 180 -886
163 -29 -8 -111 -104 -107 -124 2 -8 60 -38 133 -67 159 -64 302 -135 454
-228 133 -80 154 -98 145 -121 -3 -9 -9 -17 -13 -17 -4 0 -56 32 -117 71 -206
133 -614 319 -669 305 -31 -8 -122 -116 -152 -182 -35 -76 -46 -155 -39 -274
7 -124 30 -240 125 -610 96 -377 114 -504 115 -795 2 -434 -72 -741 -296
-1235 -186 -410 -212 -538 -224 -1085 -6 -312 -5 -352 9 -363 9 -8 49 -18 89
-23 83 -11 154 -42 180 -79 23 -32 36 -105 27 -148 -15 -71 -96 -120 -241
-146 -83 -15 -385 -44 -703 -68 -254 -19 -1089 -15 -1385 6 -284 20 -573 49
-804 80 -94 13 -180 23 -191 24 -28 0 -114 26 -150 44 -122 64 -265 281 -370
563 -104 279 -230 842 -296 1325 -26 193 -31 461 -11 580 60 344 194 629 442
940 46 58 195 218 330 356 315 321 443 490 537 709 136 317 96 690 -101 943
-101 128 -290 247 -464 293 -259 68 -553 -30 -552 -185 1 -85 66 -179 152
-216 63 -27 116 -28 243 -4 89 16 97 17 130 1 71 -34 95 -126 53 -207 -28 -54
-109 -114 -185 -136 -68 -20 -211 -19 -287 1 -167 44 -349 191 -425 342 -70
141 -65 339 13 498 46 94 92 145 184 205 179 118 441 148 737 85 402 -86 750
-359 890 -700 21 -50 41 -95 46 -101 13 -16 579 -6 596 10 9 8 8 34 -4 111
-21 141 -12 255 32 396 19 61 35 125 35 142 0 39 -33 113 -65 147 -33 35 -109
188 -139 279 -43 128 -58 219 -63 376 -5 152 3 205 30 205 7 0 64 -21 127 -46z"/>
<path d="M4078 6971 c-97 -3 -180 -9 -184 -13 -3 -4 -2 -33 4 -65 6 -32 14
-86 18 -121 4 -34 10 -65 15 -68 5 -3 46 4 91 15 105 24 215 44 393 71 77 12
143 24 147 28 12 13 -36 115 -65 136 -32 24 -114 27 -419 17z"/>
<path d="M4305 6731 c-208 -37 -356 -69 -372 -83 -8 -7 -13 -35 -13 -80 0
-229 -81 -504 -221 -747 -149 -260 -339 -497 -727 -904 -164 -174 -237 -269
-306 -397 -153 -289 -194 -679 -120 -1145 74 -467 250 -984 390 -1143 54 -62
89 -82 141 -82 78 0 119 43 134 141 8 56 5 107 -20 323 -77 643 -79 802 -16
1108 51 249 188 580 360 868 186 312 477 626 946 1021 239 201 279 250 335
414 37 109 46 309 19 383 -27 69 -84 152 -106 152 -55 0 -379 -158 -563 -274
-91 -58 -123 -73 -133 -65 -7 7 -13 17 -13 24 0 31 326 217 545 310 61 26 114
51 119 56 10 9 -36 92 -70 126 -31 31 -102 30 -309 -6z"/>
</g>
</svg>
